<svg width="2289" height="1426" viewBox="0 0 2289 1426" fill="none" xmlns="http://www.w3.org/2000/svg">
<rect width="2289" height="1426" fill="white"/>
<path d="M1081.44 846.189C1079.33 846.189 1076.16 846.082 1071.94 845.867C1067.71 845.652 1064.54 845.545 1062.43 845.545C1059.42 845.545 1054.93 845.509 1048.95 845.438C1042.97 845.366 1038.47 845.33 1035.47 845.33C1034.18 845.33 1033.44 844.918 1033.26 844.095C1033.19 841.803 1032.83 838.401 1032.19 833.89C1031.76 832.135 1031.55 831.15 1031.55 830.936C1031.55 830.757 1035.93 823.828 1044.71 810.149C1053.48 796.435 1057.86 789.059 1057.86 788.021C1057.86 787.448 1057.4 787.161 1056.47 787.161C1053.96 787.161 1050.17 787.233 1045.08 787.376C1040.03 787.519 1036.24 787.591 1033.69 787.591C1032.91 787.591 1032.51 787.179 1032.51 786.355C1032.51 785.031 1032.91 782.452 1033.69 778.621C1034.52 774.79 1034.93 772.015 1034.93 770.296C1034.93 769.723 1035.41 769.437 1036.38 769.437C1041.32 769.437 1048.73 769.544 1058.62 769.759C1068.53 769.974 1075.96 770.081 1080.91 770.081C1081.66 770.081 1082.14 770.493 1082.36 771.316C1083 774.181 1083.32 778.281 1083.32 783.616C1083.32 784.261 1083 785.066 1082.36 786.033C1080.1 789.292 1075.36 796.489 1068.12 807.625C1059.89 820.337 1055.77 826.997 1055.77 827.605C1055.77 827.892 1056.07 828.035 1056.68 828.035C1063.95 828.035 1069.54 827.892 1073.44 827.605C1074.23 827.57 1075.95 827.355 1078.6 826.961C1080.85 826.603 1082.52 826.424 1083.59 826.424C1084.09 826.424 1084.34 826.8 1084.34 827.552C1084.34 833.388 1083.82 839.207 1082.79 845.008C1082.64 845.796 1082.2 846.189 1081.44 846.189ZM1147.45 828.626C1147.45 830.166 1147.15 832.994 1146.54 837.112C1145.9 841.588 1145.32 844.256 1144.82 845.115C1144.39 845.796 1143.8 846.136 1143.05 846.136C1142.73 846.136 1142.19 846.082 1141.44 845.975C1138.82 845.617 1131.2 845.438 1118.56 845.438C1115.8 845.438 1111.7 845.42 1106.26 845.384C1100.82 845.348 1096.73 845.33 1094.01 845.33C1092.83 845.33 1092.24 844.811 1092.24 843.772C1092.24 839.762 1092.45 833.746 1092.88 825.726C1093.35 817.669 1093.58 811.635 1093.58 807.625C1093.58 803.543 1093.37 795.934 1092.94 784.798C1092.83 781.933 1092.63 777.654 1092.35 771.961L1092.29 771.209C1092.22 770.385 1092.67 769.974 1093.64 769.974C1096.29 769.974 1100.26 770.045 1105.56 770.188C1110.89 770.332 1114.89 770.403 1117.54 770.403C1120.15 770.403 1124.09 770.332 1129.35 770.188C1134.62 770.045 1138.56 769.974 1141.17 769.974C1143.03 769.974 1144.11 770.672 1144.39 772.068C1144.57 772.892 1144.84 775.398 1145.2 779.588C1145.59 783.742 1145.79 786.266 1145.79 787.161C1145.79 787.913 1145.43 788.289 1144.71 788.289C1144.5 788.289 1144.12 788.271 1143.59 788.235C1134.06 787.448 1125.5 787.054 1117.91 787.054C1116.02 787.054 1114.85 787.501 1114.42 788.396C1114.24 788.826 1114.15 790.205 1114.15 792.532C1114.15 794.967 1114.51 796.578 1115.23 797.366C1115.84 798.047 1117 798.387 1118.72 798.387C1119.08 798.387 1119.78 798.369 1120.81 798.333C1121.85 798.261 1122.71 798.226 1123.39 798.226C1127.9 798.226 1132.47 798.1 1137.09 797.85C1137.48 797.814 1138.47 797.724 1140.04 797.581C1141.26 797.438 1142.23 797.366 1142.94 797.366C1143.8 797.366 1144.23 797.778 1144.23 798.602C1144.23 797.85 1143.91 800.589 1143.26 806.819C1142.98 809.684 1142.83 812.549 1142.83 815.413C1142.83 816.129 1142.32 816.487 1141.28 816.487C1141.28 816.487 1139.67 816.308 1136.44 815.95C1134.4 815.735 1129.75 815.628 1122.48 815.628H1116.79C1115.32 815.628 1114.46 815.986 1114.21 816.702C1114.17 816.881 1114.15 817.991 1114.15 820.032C1114.15 822.754 1114.33 824.508 1114.69 825.296C1115.3 826.657 1117.59 827.462 1121.57 827.713C1121.49 827.713 1124.11 827.713 1129.41 827.713C1131.31 827.713 1134.12 827.552 1137.84 827.229C1141.6 826.871 1144.41 826.692 1146.27 826.692C1147.06 826.692 1147.45 827.337 1147.45 828.626Z" fill="#007E85"/>
<path d="M1224.74 807.249C1224.74 817.776 1221.36 826.907 1214.59 834.642C1208.61 841.552 1200.22 845.187 1189.4 845.545C1187.33 845.617 1181.61 845.652 1172.27 845.652C1170.51 845.652 1167.86 845.599 1164.32 845.491C1160.81 845.384 1158.18 845.33 1156.42 845.33C1155.39 845.33 1154.87 844.918 1154.87 844.095C1154.87 840.156 1155.01 834.248 1155.3 826.37C1155.62 818.457 1155.78 812.531 1155.78 808.592C1155.78 804.474 1155.62 798.315 1155.3 790.115C1155.01 781.88 1154.87 775.721 1154.87 771.639C1154.87 770.887 1155.39 770.439 1156.42 770.296C1158.97 770.009 1163.14 769.866 1168.94 769.866C1179.97 769.866 1187.11 770.027 1190.37 770.35C1198.86 771.209 1205.5 773.357 1210.3 776.795C1214.81 780.018 1218.37 784.529 1220.98 790.33C1223.49 795.809 1224.74 801.448 1224.74 807.249ZM1204.17 807.249C1204.17 801.198 1202.36 796.256 1198.75 792.425C1195.1 788.45 1190.26 786.463 1184.25 786.463C1178.73 786.463 1175.97 787.197 1175.97 788.665C1175.97 790.778 1175.94 793.965 1175.87 798.226C1175.8 802.451 1175.76 805.62 1175.76 807.732C1175.76 809.809 1175.8 812.942 1175.87 817.132C1175.94 821.285 1175.97 824.419 1175.97 826.531C1175.97 828.071 1178.84 828.841 1184.57 828.841C1190.76 828.841 1195.63 826.782 1199.18 822.664C1202.51 818.761 1204.17 813.623 1204.17 807.249ZM1254.88 805.638C1254.88 809.863 1254.98 816.219 1255.2 824.705C1255.41 833.191 1255.52 839.547 1255.52 843.772C1255.52 844.489 1255.36 844.936 1255.04 845.115C1254.97 845.151 1254.5 845.223 1253.64 845.33C1251.31 845.617 1248.2 845.76 1244.29 845.76C1239.07 845.76 1235.74 845.617 1234.3 845.33C1233.27 845.115 1232.75 844.56 1232.75 843.665C1232.75 844.238 1232.91 841.087 1233.23 834.212C1233.88 819.71 1234.2 810.185 1234.2 805.638C1234.2 801.806 1234.07 796.059 1233.82 788.396C1233.57 780.734 1233.45 774.987 1233.45 771.155C1233.45 770.368 1233.86 769.974 1234.68 769.974C1235.79 769.974 1237.46 770.027 1239.68 770.135C1241.93 770.242 1243.61 770.296 1244.72 770.296C1245.83 770.296 1247.46 770.242 1249.61 770.135C1251.8 770.027 1253.44 769.974 1254.55 769.974C1255.59 769.974 1256.11 770.368 1256.11 771.155C1256.11 774.987 1255.9 780.734 1255.47 788.396C1255.07 796.059 1254.88 801.806 1254.88 805.638Z" fill="#18464B"/>
<path d="M1228.52 558.929L1041.96 558L1142.48 596.763L1183.64 572.624L1041.01 724.555L1074.47 724.721L1228.52 558.929Z" fill="#007E85" stroke="#007E85"/>
<path d="M1061.45 748.331L1248 746.826L1146.93 709.377L1106.13 734.051L1246.54 580.275L1213.08 580.545L1061.45 748.331Z" fill="#18464B" stroke="#18464B"/>
</svg>
